# xmcd
# Copyright (C) 1995-1998 Ti Kan
#
# Track frame offsets:
#       150
#       51809
#       76085
#       113339
#
# Disc length: 2199 seconds
#
# Revision: 0
# Processed by: cddbd v1.5.2PL0 Copyright (c) Steve Scherf et al.
# Submitted via: CD-Import v1.0
#
DISCID=1f089504
DTITLE=Real - 02.12.06
DYEAR=07
DGENRE=
TTITLE0=The Incredible Tree Story Of Bary
TTITLE1=Song For A Dragonfly
TTITLE2=Un-Faced
TTITLE3=Opera
EXTD=
EXTT0=
EXTT1=
EXTT2=
EXTT3=
PLAYORDER=
